<svg width="10" height="10" viewBox="0 0 10 10" fill="none" xmlns="http://www.w3.org/2000/svg">
<path d="M1.11111 6.66667H0V8.88889C0 9.5 0.5 10 1.11111 10H3.33333V8.88889H1.11111V6.66667ZM1.11111 1.11111H3.33333V0H1.11111C0.5 0 0 0.5 0 1.11111V3.33333H1.11111V1.11111ZM8.88889 0H6.66667V1.11111H8.88889V3.33333H10V1.11111C10 0.5 9.5 0 8.88889 0ZM8.88889 8.88889H6.66667V10H8.88889C9.5 10 10 9.5 10 8.88889V6.66667H8.88889V8.88889ZM5 2.77778C3.77222 2.77778 2.77778 3.77222 2.77778 5C2.77778 6.22778 3.77222 7.22222 5 7.22222C6.22778 7.22222 7.22222 6.22778 7.22222 5C7.22222 3.77222 6.22778 2.77778 5 2.77778ZM5 6.11111C4.38889 6.11111 3.88889 5.61111 3.88889 5C3.88889 4.38889 4.38889 3.88889 5 3.88889C5.61111 3.88889 6.11111 4.38889 6.11111 5C6.11111 5.61111 5.61111 6.11111 5 6.11111Z" fill="#004583"/>
</svg>
