<svg width="9" height="9" viewBox="0 0 9 9" fill="none" xmlns="http://www.w3.org/2000/svg">
<path d="M4.5 1.06875C5.1525 1.06875 5.68125 1.5975 5.68125 2.25C5.68125 2.9025 5.1525 3.43125 4.5 3.43125C3.8475 3.43125 3.31875 2.9025 3.31875 2.25C3.31875 1.5975 3.8475 1.06875 4.5 1.06875ZM4.5 6.13125C6.17063 6.13125 7.93125 6.9525 7.93125 7.3125V7.93125H1.06875V7.3125C1.06875 6.9525 2.82938 6.13125 4.5 6.13125ZM4.5 0C3.25688 0 2.25 1.00688 2.25 2.25C2.25 3.49312 3.25688 4.5 4.5 4.5C5.74312 4.5 6.75 3.49312 6.75 2.25C6.75 1.00688 5.74312 0 4.5 0ZM4.5 5.0625C2.99813 5.0625 0 5.81625 0 7.3125V9H9V7.3125C9 5.81625 6.00187 5.0625 4.5 5.0625Z" fill="#004583"/>
</svg>
