<svg width="18" height="18" viewBox="0 0 18 18" fill="none" xmlns="http://www.w3.org/2000/svg">
<path d="M17.4727 0H0.527344C0.236069 0 0 0.236069 0 0.527344V17.4375C0 17.7288 0.236069 17.9648 0.527344 17.9648H17.4727C17.7639 17.9648 18 17.7288 18 17.4375V0.527344C18 0.236069 17.7639 0 17.4727 0ZM16.9453 8.47266H14.8359C14.2543 8.47266 13.7812 8.94576 13.7812 9.52734V10.1055C13.7812 10.406 13.5368 10.6504 13.2363 10.6504C12.9359 10.6504 12.6914 10.406 12.6914 10.1055V9.52734C12.6914 8.94576 12.2183 8.47266 11.6367 8.47266H9.52734V6.36328H10.1055C10.9874 6.36328 11.7051 5.64574 11.7051 4.76367C11.7051 3.88161 10.9874 3.16406 10.1055 3.16406H9.52734V1.05469H16.9453V8.47266ZM1.05469 1.05469H8.47266V3.16406C8.47266 3.74565 8.94576 4.21875 9.52734 4.21875H10.1055C10.406 4.21875 10.6504 4.4632 10.6504 4.76367C10.6504 5.06415 10.406 5.30859 10.1055 5.30859H9.52734C8.94576 5.30859 8.47266 5.78169 8.47266 6.36328V8.47266H1.05469V1.05469ZM1.05469 9.52734H8.47266V11.6367H7.89258C7.01051 11.6367 6.29297 12.3543 6.29297 13.2363C6.29297 14.1184 7.01051 14.8359 7.89258 14.8359H8.47266V16.9102H1.05469V9.52734ZM16.9453 16.9102H9.52734V14.8359C9.52734 14.2543 9.05424 13.7812 8.47266 13.7812H7.89258C7.5921 13.7812 7.34766 13.5368 7.34766 13.2363C7.34766 12.9359 7.5921 12.6914 7.89258 12.6914H8.47266C9.05424 12.6914 9.52734 12.2183 9.52734 11.6367V9.52734H11.6367V10.1055C11.6367 10.9874 12.3543 11.7051 13.2363 11.7051C14.1184 11.7051 14.8359 10.9874 14.8359 10.1055V9.52734H16.9453V16.9102Z" fill="#004583"/>
</svg>
