<svg width="18" height="18" viewBox="0 0 18 18" fill="none" xmlns="http://www.w3.org/2000/svg">
<path d="M17.4726 18H14.0842C14.0271 18 13.9704 17.9907 13.9163 17.9725L13.9076 17.9696H0.527344C0.236109 17.9696 0 17.7335 0 17.4423V14.0599C0 13.7687 0.236109 13.5326 0.527344 13.5326H3.38846V10.6775C3.38846 10.4951 3.48103 10.3344 3.62173 10.2397C3.70635 10.1814 3.80862 10.1471 3.91883 10.1471H6.77693V7.29513C6.77693 7.11257 6.86974 6.95162 7.01072 6.85698C7.0952 6.79887 7.19733 6.76477 7.3073 6.76477H10.1654V3.91275C10.1654 3.73039 10.2579 3.5697 10.3986 3.47498C10.4832 3.41663 10.5855 3.38238 10.6958 3.38238H13.5569V0.527344C13.5569 0.236109 13.793 0 14.0842 0H17.4727C17.7639 0 18 0.236109 18 0.527344L17.9999 17.4727C17.9999 17.7639 17.7639 18 17.4726 18ZM14.1704 16.9453H16.9453L16.9453 1.05469H14.6115V3.90973C14.6115 4.20096 14.3754 4.43707 14.0842 4.43707H11.22V7.29211C11.22 7.58334 10.9839 7.81945 10.6927 7.81945H7.83158V10.6745C7.83158 10.9657 7.59547 11.2018 7.30424 11.2018H4.44312V14.0599C4.44312 14.3511 4.20701 14.5872 3.91577 14.5872H1.05469V16.9149H13.9938C14.0509 16.9149 14.1076 16.9242 14.1617 16.9424L14.1704 16.9453Z" fill="#004583"/>
<path d="M6.72712 1.1405H4.22396C3.93272 1.1405 3.69661 1.37661 3.69661 1.66785C3.69661 1.95908 3.93272 2.19519 4.22396 2.19519H5.45235L1.30128 6.33884C1.09516 6.54458 1.09484 6.87849 1.30061 7.08461C1.40362 7.1878 1.53872 7.23941 1.67383 7.23941C1.80862 7.23941 1.94344 7.18804 2.04638 7.08528L6.19978 2.93934V4.16647C6.19978 4.4577 6.43589 4.69381 6.72712 4.69381C7.01835 4.69381 7.25446 4.4577 7.25446 4.16647V1.66785C7.25446 1.37661 7.01835 1.1405 6.72712 1.1405Z" fill="#004583"/>
</svg>
